<svg width="150" height="150" viewBox="0 0 150 150" fill="none" xmlns="http://www.w3.org/2000/svg">
<g clip-path="url(#clip0_4_2)">
<path d="M70.1025 0.272795C60.5125 0.909158 49.8063 3.79552 41.2871 8.06825C38.9636 9.22734 34.0204 12.2046 31.7199 13.8182C25.9112 17.8864 20.3759 23.2274 15 30.0001C12.3349 33.3637 8.09795 40.5456 6.43507 44.5455C6.04784 45.4773 5.52391 46.6591 5.29613 47.1592C3.79271 50.5001 1.7426 58.0001 0.854208 63.4547C0.170838 67.7955 0.0569425 69.2728 0.0341636 74.3182C0.0113845 85.0683 1.53758 93.1819 5.47835 103.136L6.75398 106.364L75 106.318L143.223 106.25L144.066 104.318C145.091 101.932 147.005 96.3183 147.756 93.4092C149.237 87.6364 149.966 81.7501 149.966 75.1138C149.966 69.591 149.601 65.6592 148.667 60.8864C147.961 57.2046 147.483 55.3637 146.253 51.591C143.383 42.7274 138.964 34.7728 132.722 27.1591C130.399 24.341 124.385 18.4318 122.062 16.6819C121.56 16.3182 120.9 15.7955 120.581 15.5001C119.715 14.7046 114.317 11.1364 113.975 11.1364C113.793 11.1364 113.542 11.0001 113.405 10.8182C113.018 10.2955 107.984 7.63644 104.954 6.3637C96.7768 2.86371 88.3257 0.840976 79.2142 0.22734C75.3644 -0.0226603 74.3166 -0.0226603 70.1025 0.272795ZM100.968 21.5229C100.968 21.6364 99.9203 23.091 98.6674 24.7727C97.4146 26.4546 95.8656 28.6138 95.2278 29.5455C94.59 30.4773 93.5877 31.8636 92.9954 32.6137C92.4033 33.3636 91.7882 34.2273 91.6059 34.5456C91.4236 34.8637 90.8086 35.7955 90.1936 36.591C87.6424 40.0683 85.0912 43.5683 84.7039 44.2046C84.4532 44.5683 83.9749 45.1819 83.6332 45.5455C83.2688 45.9091 82.8361 46.5456 82.631 46.9547C82.426 47.3864 81.7654 48.3865 81.1276 49.2047L79.9886 50.6818H89.9202C95.3645 50.6818 99.8291 50.75 99.8291 50.8637C99.8291 51.0001 97.3235 53.8182 83.4282 69.1138C74.6583 78.7727 54.8633 100.614 54.0205 101.545C53.5421 102.091 52.8588 102.886 52.5398 103.318C51.9248 104.114 51.5376 104.296 51.5376 103.818C51.5376 103.5 53.5878 99.0909 56.344 93.5C57.3234 91.5001 58.1435 89.7273 58.1435 89.5683C58.1435 89.4319 58.4851 88.6138 58.9181 87.7727C59.3281 86.9319 59.9431 85.6364 60.2619 84.8864C60.5809 84.1364 61.9476 81.2273 63.3144 78.4092C64.6811 75.591 66.1389 72.5682 66.5262 71.7047C68.0296 68.2956 68.394 67.4319 68.394 67.3637C68.394 67.3182 64.2027 67.2729 59.0774 67.2729H49.7609L51.287 63.4547C52.1298 61.3637 53.0411 59.2046 53.2915 58.6364C53.8838 57.3865 58.2574 46.4546 58.4851 45.6819C58.5764 45.3636 58.8497 44.6592 59.1002 44.091C59.3508 43.5227 59.6469 42.8638 59.7608 42.6137C59.8748 42.3637 60.9453 39.7046 62.1526 36.7046C63.36 33.7046 64.59 30.6819 64.9088 30.0001C65.7062 28.2729 66.6402 25.9092 67.369 23.75C67.7107 22.7501 68.098 21.7956 68.2119 21.6364C68.394 21.4318 71.9704 21.3636 84.7039 21.3636C93.656 21.3636 100.968 21.4318 100.968 21.5229Z" fill="url(#paint0_linear_4_2)"/>
<path d="M60.7632 113.693H63.8952V112.614V111.534H59.2825H54.6697V120.341V129.148H59.5102H64.3509V128.182V127.216H60.9909H57.4601H57.2892V127.045V124.205V121.364V121.193H57.4601H60.5353H63.4396V120.227V119.261H60.5353H57.4601H57.2892V119.091V116.477V113.864V113.693H57.4601H60.7632Z" stroke="url(#paint1_linear_4_2)" stroke-width="2"/>
<g filter="url(#filter0_f_4_2)">
<path d="M60.7632 113.693H63.8952V112.614V111.534H59.2825H54.6697V120.341V129.148H59.5102H64.3509V128.182V127.216H60.9909H57.4601H57.2892V127.045V124.205V121.364V121.193H57.4601H60.5353H63.4396V120.227V119.261H60.5353H57.4601H57.2892V119.091V116.477V113.864V113.693H57.4601H60.7632Z" stroke="url(#paint2_linear_4_2)" stroke-width="2"/>
</g>
<g filter="url(#filter1_f_4_2)">
<path d="M60.7632 113.693H63.8952V112.614V111.534H59.2825H54.6697V120.341V129.148H59.5102H64.3509V128.182V127.216H60.9909H57.4601H57.2892V127.045V124.205V121.364V121.193H57.4601H60.5353H63.4396V120.227V119.261H60.5353H57.4601H57.2892V119.091V116.477V113.864V113.693H57.4601H60.7632Z" stroke="url(#paint3_linear_4_2)" stroke-width="2"/>
</g>
<g filter="url(#filter2_f_4_2)">
<path d="M60.7632 113.693H63.8952V112.614V111.534H59.2825H54.6697V120.341V129.148H59.5102H64.3509V128.182V127.216H60.9909H57.4601H57.2892V127.045V124.205V121.364V121.193H57.4601H60.5353H63.4396V120.227V119.261H60.5353H57.4601H57.2892V119.091V116.477V113.864V113.693H57.4601H60.7632Z" stroke="url(#paint4_linear_4_2)" stroke-width="2"/>
</g>
<g filter="url(#filter3_f_4_2)">
<path d="M60.7632 113.693H63.8952V112.614V111.534H59.2825H54.6697V120.341V129.148H59.5102H64.3509V128.182V127.216H60.9909H57.4601H57.2892V127.045V124.205V121.364V121.193H57.4601H60.5353H63.4396V120.227V119.261H60.5353H57.4601H57.2892V119.091V116.477V113.864V113.693H57.4601H60.7632Z" stroke="url(#paint5_linear_4_2)" stroke-width="2"/>
</g>
<path d="M71.5169 126.763L71.517 126.763L72.2991 129.039L73.7771 129.102L75.2692 129.165L76.7754 125.01C76.7754 125.01 76.7754 125.01 76.7756 125.01C77.6185 122.669 78.711 119.603 79.166 118.241L79.1665 118.24C79.645 116.853 80.3971 114.738 80.8532 113.509C80.8532 113.509 80.8534 113.509 80.8534 113.509L81.5677 111.534H80.3986H79.1088L76.6879 118.646L76.6878 118.646C76.0044 120.623 75.3724 122.464 74.9055 123.833C74.672 124.518 74.48 125.084 74.3435 125.491C74.2049 125.903 74.1272 126.141 74.1179 126.178L74.1155 126.187L74.1121 126.196C74.1051 126.215 74.0884 126.251 74.0501 126.279C74.0052 126.313 73.952 126.32 73.9071 126.31C73.8692 126.302 73.8429 126.284 73.8299 126.274C73.8155 126.262 73.8046 126.251 73.7971 126.242C73.7703 126.211 73.746 126.168 73.7253 126.128C73.6806 126.042 73.622 125.909 73.5519 125.737C73.411 125.393 73.2164 124.875 72.9827 124.225C72.5149 122.925 71.8881 121.088 71.2157 119.03L68.7924 111.642L67.3614 111.579H67.3606C67.0134 111.562 66.7481 111.553 66.5467 111.553C66.3419 111.553 66.2171 111.564 66.144 111.583C66.1286 111.587 66.1179 111.59 66.1104 111.593C66.1105 111.594 66.1107 111.596 66.111 111.597C66.1148 111.618 66.1235 111.647 66.1389 111.689C66.2361 111.933 67.2381 114.727 68.3727 117.897C69.0595 119.815 69.6873 121.583 70.0931 122.725C70.3608 123.478 70.5316 123.959 70.5586 124.031C70.628 124.215 71.0616 125.445 71.5169 126.763ZM66.095 111.601C66.0952 111.601 66.096 111.6 66.0974 111.599C66.0955 111.6 66.0948 111.601 66.095 111.601Z" stroke="url(#paint6_linear_4_2)" stroke-width="2"/>
<g filter="url(#filter4_f_4_2)">
<path d="M71.5169 126.763L71.517 126.763L72.2991 129.039L73.7771 129.102L75.2692 129.165L76.7754 125.01C76.7754 125.01 76.7754 125.01 76.7756 125.01C77.6185 122.669 78.711 119.603 79.166 118.241L79.1665 118.24C79.645 116.853 80.3971 114.738 80.8532 113.509C80.8532 113.509 80.8534 113.509 80.8534 113.509L81.5677 111.534H80.3986H79.1088L76.6879 118.646L76.6878 118.646C76.0044 120.623 75.3724 122.464 74.9055 123.833C74.672 124.518 74.48 125.084 74.3435 125.491C74.2049 125.903 74.1272 126.141 74.1179 126.178L74.1155 126.187L74.1121 126.196C74.1051 126.215 74.0884 126.251 74.0501 126.279C74.0052 126.313 73.952 126.32 73.9071 126.31C73.8692 126.302 73.8429 126.284 73.8299 126.274C73.8155 126.262 73.8046 126.251 73.7971 126.242C73.7703 126.211 73.746 126.168 73.7253 126.128C73.6806 126.042 73.622 125.909 73.5519 125.737C73.411 125.393 73.2164 124.875 72.9827 124.225C72.5149 122.925 71.8881 121.088 71.2157 119.03L68.7924 111.642L67.3614 111.579H67.3606C67.0134 111.562 66.7481 111.553 66.5467 111.553C66.3419 111.553 66.2171 111.564 66.144 111.583C66.1286 111.587 66.1179 111.59 66.1104 111.593C66.1105 111.594 66.1107 111.596 66.111 111.597C66.1148 111.618 66.1235 111.647 66.1389 111.689C66.2361 111.933 67.2381 114.727 68.3727 117.897C69.0595 119.815 69.6873 121.583 70.0931 122.725C70.3608 123.478 70.5316 123.959 70.5586 124.031C70.628 124.215 71.0616 125.445 71.5169 126.763ZM66.095 111.601C66.0952 111.601 66.096 111.6 66.0974 111.599C66.0955 111.6 66.0948 111.601 66.095 111.601Z" stroke="url(#paint7_linear_4_2)" stroke-width="2"/>
</g>
<g filter="url(#filter5_f_4_2)">
<path d="M71.5169 126.763L71.517 126.763L72.2991 129.039L73.7771 129.102L75.2692 129.165L76.7754 125.01C76.7754 125.01 76.7754 125.01 76.7756 125.01C77.6185 122.669 78.711 119.603 79.166 118.241L79.1665 118.24C79.645 116.853 80.3971 114.738 80.8532 113.509C80.8532 113.509 80.8534 113.509 80.8534 113.509L81.5677 111.534H80.3986H79.1088L76.6879 118.646L76.6878 118.646C76.0044 120.623 75.3724 122.464 74.9055 123.833C74.672 124.518 74.48 125.084 74.3435 125.491C74.2049 125.903 74.1272 126.141 74.1179 126.178L74.1155 126.187L74.1121 126.196C74.1051 126.215 74.0884 126.251 74.0501 126.279C74.0052 126.313 73.952 126.32 73.9071 126.31C73.8692 126.302 73.8429 126.284 73.8299 126.274C73.8155 126.262 73.8046 126.251 73.7971 126.242C73.7703 126.211 73.746 126.168 73.7253 126.128C73.6806 126.042 73.622 125.909 73.5519 125.737C73.411 125.393 73.2164 124.875 72.9827 124.225C72.5149 122.925 71.8881 121.088 71.2157 119.03L68.7924 111.642L67.3614 111.579H67.3606C67.0134 111.562 66.7481 111.553 66.5467 111.553C66.3419 111.553 66.2171 111.564 66.144 111.583C66.1286 111.587 66.1179 111.59 66.1104 111.593C66.1105 111.594 66.1107 111.596 66.111 111.597C66.1148 111.618 66.1235 111.647 66.1389 111.689C66.2361 111.933 67.2381 114.727 68.3727 117.897C69.0595 119.815 69.6873 121.583 70.0931 122.725C70.3608 123.478 70.5316 123.959 70.5586 124.031C70.628 124.215 71.0616 125.445 71.5169 126.763ZM66.095 111.601C66.0952 111.601 66.096 111.6 66.0974 111.599C66.0955 111.6 66.0948 111.601 66.095 111.601Z" stroke="url(#paint8_linear_4_2)" stroke-width="2"/>
</g>
<g filter="url(#filter6_f_4_2)">
<path d="M71.5169 126.763L71.517 126.763L72.2991 129.039L73.7771 129.102L75.2692 129.165L76.7754 125.01C76.7754 125.01 76.7754 125.01 76.7756 125.01C77.6185 122.669 78.711 119.603 79.166 118.241L79.1665 118.24C79.645 116.853 80.3971 114.738 80.8532 113.509C80.8532 113.509 80.8534 113.509 80.8534 113.509L81.5677 111.534H80.3986H79.1088L76.6879 118.646L76.6878 118.646C76.0044 120.623 75.3724 122.464 74.9055 123.833C74.672 124.518 74.48 125.084 74.3435 125.491C74.2049 125.903 74.1272 126.141 74.1179 126.178L74.1155 126.187L74.1121 126.196C74.1051 126.215 74.0884 126.251 74.0501 126.279C74.0052 126.313 73.952 126.32 73.9071 126.31C73.8692 126.302 73.8429 126.284 73.8299 126.274C73.8155 126.262 73.8046 126.251 73.7971 126.242C73.7703 126.211 73.746 126.168 73.7253 126.128C73.6806 126.042 73.622 125.909 73.5519 125.737C73.411 125.393 73.2164 124.875 72.9827 124.225C72.5149 122.925 71.8881 121.088 71.2157 119.03L68.7924 111.642L67.3614 111.579H67.3606C67.0134 111.562 66.7481 111.553 66.5467 111.553C66.3419 111.553 66.2171 111.564 66.144 111.583C66.1286 111.587 66.1179 111.59 66.1104 111.593C66.1105 111.594 66.1107 111.596 66.111 111.597C66.1148 111.618 66.1235 111.647 66.1389 111.689C66.2361 111.933 67.2381 114.727 68.3727 117.897C69.0595 119.815 69.6873 121.583 70.0931 122.725C70.3608 123.478 70.5316 123.959 70.5586 124.031C70.628 124.215 71.0616 125.445 71.5169 126.763ZM66.095 111.601C66.0952 111.601 66.096 111.6 66.0974 111.599C66.0955 111.6 66.0948 111.601 66.095 111.601Z" stroke="url(#paint9_linear_4_2)" stroke-width="2"/>
</g>
<g filter="url(#filter7_f_4_2)">
<path d="M71.5169 126.763L71.517 126.763L72.2991 129.039L73.7771 129.102L75.2692 129.165L76.7754 125.01C76.7754 125.01 76.7754 125.01 76.7756 125.01C77.6185 122.669 78.711 119.603 79.166 118.241L79.1665 118.24C79.645 116.853 80.3971 114.738 80.8532 113.509C80.8532 113.509 80.8534 113.509 80.8534 113.509L81.5677 111.534H80.3986H79.1088L76.6879 118.646L76.6878 118.646C76.0044 120.623 75.3724 122.464 74.9055 123.833C74.672 124.518 74.48 125.084 74.3435 125.491C74.2049 125.903 74.1272 126.141 74.1179 126.178L74.1155 126.187L74.1121 126.196C74.1051 126.215 74.0884 126.251 74.0501 126.279C74.0052 126.313 73.952 126.32 73.9071 126.31C73.8692 126.302 73.8429 126.284 73.8299 126.274C73.8155 126.262 73.8046 126.251 73.7971 126.242C73.7703 126.211 73.746 126.168 73.7253 126.128C73.6806 126.042 73.622 125.909 73.5519 125.737C73.411 125.393 73.2164 124.875 72.9827 124.225C72.5149 122.925 71.8881 121.088 71.2157 119.03L68.7924 111.642L67.3614 111.579H67.3606C67.0134 111.562 66.7481 111.553 66.5467 111.553C66.3419 111.553 66.2171 111.564 66.144 111.583C66.1286 111.587 66.1179 111.59 66.1104 111.593C66.1105 111.594 66.1107 111.596 66.111 111.597C66.1148 111.618 66.1235 111.647 66.1389 111.689C66.2361 111.933 67.2381 114.727 68.3727 117.897C69.0595 119.815 69.6873 121.583 70.0931 122.725C70.3608 123.478 70.5316 123.959 70.5586 124.031C70.628 124.215 71.0616 125.445 71.5169 126.763ZM66.095 111.601C66.0952 111.601 66.096 111.6 66.0974 111.599C66.0955 111.6 66.0948 111.601 66.095 111.601Z" stroke="url(#paint10_linear_4_2)" stroke-width="2"/>
</g>
<path d="M87.9846 115.105L87.9844 115.106C86.0484 120.196 83.7244 126.243 83.0402 127.949L82.5637 129.148H83.8838C84.237 129.148 84.5076 129.145 84.7184 129.133C84.9309 129.122 85.0719 129.102 85.1699 129.073C85.2632 129.045 85.3107 129.01 85.3445 128.969C85.3819 128.925 85.4134 128.859 85.451 128.747C85.4894 128.598 85.6054 128.257 85.7527 127.836C85.8205 127.642 85.895 127.43 85.9731 127.209C86.0701 126.934 86.1724 126.644 86.2737 126.353L86.2743 126.352L86.2746 126.35L86.958 124.487L86.9997 124.373L87.1206 124.375L90.6741 124.42L90.6752 124.42L94.2516 124.489L94.3691 124.491L94.4091 124.601L95.2292 126.874L96.0104 129.039L97.4448 129.102H97.4457C97.7985 129.119 98.0667 129.129 98.2688 129.129C98.475 129.128 98.5973 129.117 98.6669 129.099C98.6732 129.098 98.6786 129.096 98.6832 129.094C98.6771 129.072 98.6658 129.041 98.6475 129L98.6465 128.998L98.6455 128.995C98.5541 128.767 98.2572 128.015 98.0059 127.331C97.7556 126.65 96.4346 123.106 95.0681 119.492C93.6794 115.858 92.4477 112.558 92.3094 112.145L92.3089 112.143L92.3084 112.142C92.25 111.955 92.2109 111.837 92.1639 111.754C92.1231 111.681 92.0797 111.641 92.0081 111.612C91.9252 111.578 91.799 111.556 91.5849 111.545C91.3732 111.534 91.0953 111.534 90.7175 111.534H89.3323L87.9846 115.105ZM98.7067 129.085C98.7067 129.085 98.706 129.085 98.7048 129.086C98.7061 129.085 98.7068 129.085 98.7067 129.085ZM87.9384 122.67H87.7344L87.7703 122.47L87.8843 121.834L87.8844 121.832L87.8848 121.83C87.9214 121.648 88.0907 121.091 88.3281 120.351C88.5678 119.606 88.8813 118.662 89.2119 117.695C89.2119 117.695 89.2119 117.695 89.2119 117.695L90.3962 114.195L90.5547 113.727L90.7192 114.193L92.1543 118.261C92.1543 118.261 92.1543 118.261 92.1543 118.261C92.4724 119.159 92.7687 119.992 93.0099 120.67C93.0711 120.841 93.1286 121.003 93.1821 121.153C93.3145 121.525 93.422 121.828 93.4965 122.039C93.5337 122.145 93.5628 122.228 93.5826 122.285C93.5925 122.314 93.6003 122.337 93.6058 122.353C93.6084 122.361 93.6108 122.369 93.6126 122.375C93.6135 122.378 93.6149 122.382 93.6159 122.387C93.6166 122.389 93.6174 122.393 93.6184 122.397C93.6186 122.398 93.6219 122.413 93.6219 122.432C93.6219 122.485 93.5981 122.524 93.5792 122.545C93.5612 122.566 93.5424 122.578 93.532 122.584C93.5115 122.596 93.492 122.602 93.4826 122.604C93.4613 122.61 93.4375 122.614 93.417 122.617C93.3735 122.623 93.3135 122.627 93.2421 122.632C93.0979 122.64 92.8917 122.648 92.6405 122.653C92.1376 122.665 91.447 122.67 90.6948 122.67H87.9384Z" stroke="url(#paint11_linear_4_2)" stroke-width="2"/>
<g filter="url(#filter8_f_4_2)">
<path d="M87.9846 115.105L87.9844 115.106C86.0484 120.196 83.7244 126.243 83.0402 127.949L82.5637 129.148H83.8838C84.237 129.148 84.5076 129.145 84.7184 129.133C84.9309 129.122 85.0719 129.102 85.1699 129.073C85.2632 129.045 85.3107 129.01 85.3445 128.969C85.3819 128.925 85.4134 128.859 85.451 128.747C85.4894 128.598 85.6054 128.257 85.7527 127.836C85.8205 127.642 85.895 127.43 85.9731 127.209C86.0701 126.934 86.1724 126.644 86.2737 126.353L86.2743 126.352L86.2746 126.35L86.958 124.487L86.9997 124.373L87.1206 124.375L90.6741 124.42L90.6752 124.42L94.2516 124.489L94.3691 124.491L94.4091 124.601L95.2292 126.874L96.0104 129.039L97.4448 129.102H97.4457C97.7985 129.119 98.0667 129.129 98.2688 129.129C98.475 129.128 98.5973 129.117 98.6669 129.099C98.6732 129.098 98.6786 129.096 98.6832 129.094C98.6771 129.072 98.6658 129.041 98.6475 129L98.6465 128.998L98.6455 128.995C98.5541 128.767 98.2572 128.015 98.0059 127.331C97.7556 126.65 96.4346 123.106 95.0681 119.492C93.6794 115.858 92.4477 112.558 92.3094 112.145L92.3089 112.143L92.3084 112.142C92.25 111.955 92.2109 111.837 92.1639 111.754C92.1231 111.681 92.0797 111.641 92.0081 111.612C91.9252 111.578 91.799 111.556 91.5849 111.545C91.3732 111.534 91.0953 111.534 90.7175 111.534H89.3323L87.9846 115.105ZM98.7067 129.085C98.7067 129.085 98.706 129.085 98.7048 129.086C98.7061 129.085 98.7068 129.085 98.7067 129.085ZM87.9384 122.67H87.7344L87.7703 122.47L87.8843 121.834L87.8844 121.832L87.8848 121.83C87.9214 121.648 88.0907 121.091 88.3281 120.351C88.5678 119.606 88.8813 118.662 89.2119 117.695C89.2119 117.695 89.2119 117.695 89.2119 117.695L90.3962 114.195L90.5547 113.727L90.7192 114.193L92.1543 118.261C92.1543 118.261 92.1543 118.261 92.1543 118.261C92.4724 119.159 92.7687 119.992 93.0099 120.67C93.0711 120.841 93.1286 121.003 93.1821 121.153C93.3145 121.525 93.422 121.828 93.4965 122.039C93.5337 122.145 93.5628 122.228 93.5826 122.285C93.5925 122.314 93.6003 122.337 93.6058 122.353C93.6084 122.361 93.6108 122.369 93.6126 122.375C93.6135 122.378 93.6149 122.382 93.6159 122.387C93.6166 122.389 93.6174 122.393 93.6184 122.397C93.6186 122.398 93.6219 122.413 93.6219 122.432C93.6219 122.485 93.5981 122.524 93.5792 122.545C93.5612 122.566 93.5424 122.578 93.532 122.584C93.5115 122.596 93.492 122.602 93.4826 122.604C93.4613 122.61 93.4375 122.614 93.417 122.617C93.3735 122.623 93.3135 122.627 93.2421 122.632C93.0979 122.64 92.8917 122.648 92.6405 122.653C92.1376 122.665 91.447 122.67 90.6948 122.67H87.9384Z" stroke="url(#paint12_linear_4_2)" stroke-width="2"/>
</g>
<g filter="url(#filter9_f_4_2)">
<path d="M87.9846 115.105L87.9844 115.106C86.0484 120.196 83.7244 126.243 83.0402 127.949L82.5637 129.148H83.8838C84.237 129.148 84.5076 129.145 84.7184 129.133C84.9309 129.122 85.0719 129.102 85.1699 129.073C85.2632 129.045 85.3107 129.01 85.3445 128.969C85.3819 128.925 85.4134 128.859 85.451 128.747C85.4894 128.598 85.6054 128.257 85.7527 127.836C85.8205 127.642 85.895 127.43 85.9731 127.209C86.0701 126.934 86.1724 126.644 86.2737 126.353L86.2743 126.352L86.2746 126.35L86.958 124.487L86.9997 124.373L87.1206 124.375L90.6741 124.42L90.6752 124.42L94.2516 124.489L94.3691 124.491L94.4091 124.601L95.2292 126.874L96.0104 129.039L97.4448 129.102H97.4457C97.7985 129.119 98.0667 129.129 98.2688 129.129C98.475 129.128 98.5973 129.117 98.6669 129.099C98.6732 129.098 98.6786 129.096 98.6832 129.094C98.6771 129.072 98.6658 129.041 98.6475 129L98.6465 128.998L98.6455 128.995C98.5541 128.767 98.2572 128.015 98.0059 127.331C97.7556 126.65 96.4346 123.106 95.0681 119.492C93.6794 115.858 92.4477 112.558 92.3094 112.145L92.3089 112.143L92.3084 112.142C92.25 111.955 92.2109 111.837 92.1639 111.754C92.1231 111.681 92.0797 111.641 92.0081 111.612C91.9252 111.578 91.799 111.556 91.5849 111.545C91.3732 111.534 91.0953 111.534 90.7175 111.534H89.3323L87.9846 115.105ZM98.7067 129.085C98.7067 129.085 98.706 129.085 98.7048 129.086C98.7061 129.085 98.7068 129.085 98.7067 129.085ZM87.9384 122.67H87.7344L87.7703 122.47L87.8843 121.834L87.8844 121.832L87.8848 121.83C87.9214 121.648 88.0907 121.091 88.3281 120.351C88.5678 119.606 88.8813 118.662 89.2119 117.695C89.2119 117.695 89.2119 117.695 89.2119 117.695L90.3962 114.195L90.5547 113.727L90.7192 114.193L92.1543 118.261C92.1543 118.261 92.1543 118.261 92.1543 118.261C92.4724 119.159 92.7687 119.992 93.0099 120.67C93.0711 120.841 93.1286 121.003 93.1821 121.153C93.3145 121.525 93.422 121.828 93.4965 122.039C93.5337 122.145 93.5628 122.228 93.5826 122.285C93.5925 122.314 93.6003 122.337 93.6058 122.353C93.6084 122.361 93.6108 122.369 93.6126 122.375C93.6135 122.378 93.6149 122.382 93.6159 122.387C93.6166 122.389 93.6174 122.393 93.6184 122.397C93.6186 122.398 93.6219 122.413 93.6219 122.432C93.6219 122.485 93.5981 122.524 93.5792 122.545C93.5612 122.566 93.5424 122.578 93.532 122.584C93.5115 122.596 93.492 122.602 93.4826 122.604C93.4613 122.61 93.4375 122.614 93.417 122.617C93.3735 122.623 93.3135 122.627 93.2421 122.632C93.0979 122.64 92.8917 122.648 92.6405 122.653C92.1376 122.665 91.447 122.67 90.6948 122.67H87.9384Z" stroke="url(#paint13_linear_4_2)" stroke-width="2"/>
</g>
<g filter="url(#filter10_f_4_2)">
<path d="M87.9846 115.105L87.9844 115.106C86.0484 120.196 83.7244 126.243 83.0402 127.949L82.5637 129.148H83.8838C84.237 129.148 84.5076 129.145 84.7184 129.133C84.9309 129.122 85.0719 129.102 85.1699 129.073C85.2632 129.045 85.3107 129.01 85.3445 128.969C85.3819 128.925 85.4134 128.859 85.451 128.747C85.4894 128.598 85.6054 128.257 85.7527 127.836C85.8205 127.642 85.895 127.43 85.9731 127.209C86.0701 126.934 86.1724 126.644 86.2737 126.353L86.2743 126.352L86.2746 126.35L86.958 124.487L86.9997 124.373L87.1206 124.375L90.6741 124.42L90.6752 124.42L94.2516 124.489L94.3691 124.491L94.4091 124.601L95.2292 126.874L96.0104 129.039L97.4448 129.102H97.4457C97.7985 129.119 98.0667 129.129 98.2688 129.129C98.475 129.128 98.5973 129.117 98.6669 129.099C98.6732 129.098 98.6786 129.096 98.6832 129.094C98.6771 129.072 98.6658 129.041 98.6475 129L98.6465 128.998L98.6455 128.995C98.5541 128.767 98.2572 128.015 98.0059 127.331C97.7556 126.65 96.4346 123.106 95.0681 119.492C93.6794 115.858 92.4477 112.558 92.3094 112.145L92.3089 112.143L92.3084 112.142C92.25 111.955 92.2109 111.837 92.1639 111.754C92.1231 111.681 92.0797 111.641 92.0081 111.612C91.9252 111.578 91.799 111.556 91.5849 111.545C91.3732 111.534 91.0953 111.534 90.7175 111.534H89.3323L87.9846 115.105ZM98.7067 129.085C98.7067 129.085 98.706 129.085 98.7048 129.086C98.7061 129.085 98.7068 129.085 98.7067 129.085ZM87.9384 122.67H87.7344L87.7703 122.47L87.8843 121.834L87.8844 121.832L87.8848 121.83C87.9214 121.648 88.0907 121.091 88.3281 120.351C88.5678 119.606 88.8813 118.662 89.2119 117.695C89.2119 117.695 89.2119 117.695 89.2119 117.695L90.3962 114.195L90.5547 113.727L90.7192 114.193L92.1543 118.261C92.1543 118.261 92.1543 118.261 92.1543 118.261C92.4724 119.159 92.7687 119.992 93.0099 120.67C93.0711 120.841 93.1286 121.003 93.1821 121.153C93.3145 121.525 93.422 121.828 93.4965 122.039C93.5337 122.145 93.5628 122.228 93.5826 122.285C93.5925 122.314 93.6003 122.337 93.6058 122.353C93.6084 122.361 93.6108 122.369 93.6126 122.375C93.6135 122.378 93.6149 122.382 93.6159 122.387C93.6166 122.389 93.6174 122.393 93.6184 122.397C93.6186 122.398 93.6219 122.413 93.6219 122.432C93.6219 122.485 93.5981 122.524 93.5792 122.545C93.5612 122.566 93.5424 122.578 93.532 122.584C93.5115 122.596 93.492 122.602 93.4826 122.604C93.4613 122.61 93.4375 122.614 93.417 122.617C93.3735 122.623 93.3135 122.627 93.2421 122.632C93.0979 122.64 92.8917 122.648 92.6405 122.653C92.1376 122.665 91.447 122.67 90.6948 122.67H87.9384Z" stroke="url(#paint14_linear_4_2)" stroke-width="2"/>
</g>
<g filter="url(#filter11_f_4_2)">
<path d="M87.9846 115.105L87.9844 115.106C86.0484 120.196 83.7244 126.243 83.0402 127.949L82.5637 129.148H83.8838C84.237 129.148 84.5076 129.145 84.7184 129.133C84.9309 129.122 85.0719 129.102 85.1699 129.073C85.2632 129.045 85.3107 129.01 85.3445 128.969C85.3819 128.925 85.4134 128.859 85.451 128.747C85.4894 128.598 85.6054 128.257 85.7527 127.836C85.8205 127.642 85.895 127.43 85.9731 127.209C86.0701 126.934 86.1724 126.644 86.2737 126.353L86.2743 126.352L86.2746 126.35L86.958 124.487L86.9997 124.373L87.1206 124.375L90.6741 124.42L90.6752 124.42L94.2516 124.489L94.3691 124.491L94.4091 124.601L95.2292 126.874L96.0104 129.039L97.4448 129.102H97.4457C97.7985 129.119 98.0667 129.129 98.2688 129.129C98.475 129.128 98.5973 129.117 98.6669 129.099C98.6732 129.098 98.6786 129.096 98.6832 129.094C98.6771 129.072 98.6658 129.041 98.6475 129L98.6465 128.998L98.6455 128.995C98.5541 128.767 98.2572 128.015 98.0059 127.331C97.7556 126.65 96.4346 123.106 95.0681 119.492C93.6794 115.858 92.4477 112.558 92.3094 112.145L92.3089 112.143L92.3084 112.142C92.25 111.955 92.2109 111.837 92.1639 111.754C92.1231 111.681 92.0797 111.641 92.0081 111.612C91.9252 111.578 91.799 111.556 91.5849 111.545C91.3732 111.534 91.0953 111.534 90.7175 111.534H89.3323L87.9846 115.105ZM98.7067 129.085C98.7067 129.085 98.706 129.085 98.7048 129.086C98.7061 129.085 98.7068 129.085 98.7067 129.085ZM87.9384 122.67H87.7344L87.7703 122.47L87.8843 121.834L87.8844 121.832L87.8848 121.83C87.9214 121.648 88.0907 121.091 88.3281 120.351C88.5678 119.606 88.8813 118.662 89.2119 117.695C89.2119 117.695 89.2119 117.695 89.2119 117.695L90.3962 114.195L90.5547 113.727L90.7192 114.193L92.1543 118.261C92.1543 118.261 92.1543 118.261 92.1543 118.261C92.4724 119.159 92.7687 119.992 93.0099 120.67C93.0711 120.841 93.1286 121.003 93.1821 121.153C93.3145 121.525 93.422 121.828 93.4965 122.039C93.5337 122.145 93.5628 122.228 93.5826 122.285C93.5925 122.314 93.6003 122.337 93.6058 122.353C93.6084 122.361 93.6108 122.369 93.6126 122.375C93.6135 122.378 93.6149 122.382 93.6159 122.387C93.6166 122.389 93.6174 122.393 93.6184 122.397C93.6186 122.398 93.6219 122.413 93.6219 122.432C93.6219 122.485 93.5981 122.524 93.5792 122.545C93.5612 122.566 93.5424 122.578 93.532 122.584C93.5115 122.596 93.492 122.602 93.4826 122.604C93.4613 122.61 93.4375 122.614 93.417 122.617C93.3735 122.623 93.3135 122.627 93.2421 122.632C93.0979 122.64 92.8917 122.648 92.6405 122.653C92.1376 122.665 91.447 122.67 90.6948 122.67H87.9384Z" stroke="url(#paint15_linear_4_2)" stroke-width="2"/>
</g>
<path d="M29.3281 134.454C30.4442 135.386 36.2528 139.182 38.2119 140.273C44.2483 143.614 50.1936 145.955 56.8679 147.636C63.7244 149.364 72.5626 150.25 78.4169 149.795C80.1026 149.659 81.6514 149.545 81.8337 149.523C83.7015 149.477 88.8497 148.636 91.9703 147.886C100.125 145.955 106.503 143.386 113.36 139.318C116.071 137.705 121.242 134.182 121.242 133.955C121.242 133.909 100.399 133.864 74.9544 133.864L28.6447 133.886L29.3281 134.454Z" fill="url(#paint16_linear_4_2)"/>
</g>
<defs>
<filter id="filter0_f_4_2" x="3.66971" y="60.5339" width="111.681" height="119.614" filterUnits="userSpaceOnUse" color-interpolation-filters="sRGB">
<feFlood flood-opacity="0" result="BackgroundImageFix"/>
<feBlend mode="normal" in="SourceGraphic" in2="BackgroundImageFix" result="shape"/>
<feGaussianBlur stdDeviation="25" result="effect1_foregroundBlur_4_2"/>
</filter>
<filter id="filter1_f_4_2" x="28.6697" y="85.5339" width="61.6811" height="69.6138" filterUnits="userSpaceOnUse" color-interpolation-filters="sRGB">
<feFlood flood-opacity="0" result="BackgroundImageFix"/>
<feBlend mode="normal" in="SourceGraphic" in2="BackgroundImageFix" result="shape"/>
<feGaussianBlur stdDeviation="12.5" result="effect1_foregroundBlur_4_2"/>
</filter>
<filter id="filter2_f_4_2" x="38.6697" y="95.5339" width="41.6811" height="49.6138" filterUnits="userSpaceOnUse" color-interpolation-filters="sRGB">
<feFlood flood-opacity="0" result="BackgroundImageFix"/>
<feBlend mode="normal" in="SourceGraphic" in2="BackgroundImageFix" result="shape"/>
<feGaussianBlur stdDeviation="7.5" result="effect1_foregroundBlur_4_2"/>
</filter>
<filter id="filter3_f_4_2" x="43.6697" y="100.534" width="31.6811" height="39.6138" filterUnits="userSpaceOnUse" color-interpolation-filters="sRGB">
<feFlood flood-opacity="0" result="BackgroundImageFix"/>
<feBlend mode="normal" in="SourceGraphic" in2="BackgroundImageFix" result="shape"/>
<feGaussianBlur stdDeviation="5" result="effect1_foregroundBlur_4_2"/>
</filter>
<filter id="filter4_f_4_2" x="15.0209" y="60.5339" width="117.972" height="119.661" filterUnits="userSpaceOnUse" color-interpolation-filters="sRGB">
<feFlood flood-opacity="0" result="BackgroundImageFix"/>
<feBlend mode="normal" in="SourceGraphic" in2="BackgroundImageFix" result="shape"/>
<feGaussianBlur stdDeviation="25" result="effect1_foregroundBlur_4_2"/>
</filter>
<filter id="filter5_f_4_2" x="40.0209" y="85.5339" width="67.9719" height="69.6614" filterUnits="userSpaceOnUse" color-interpolation-filters="sRGB">
<feFlood flood-opacity="0" result="BackgroundImageFix"/>
<feBlend mode="normal" in="SourceGraphic" in2="BackgroundImageFix" result="shape"/>
<feGaussianBlur stdDeviation="12.5" result="effect1_foregroundBlur_4_2"/>
</filter>
<filter id="filter6_f_4_2" x="50.0209" y="95.5339" width="47.9719" height="49.6614" filterUnits="userSpaceOnUse" color-interpolation-filters="sRGB">
<feFlood flood-opacity="0" result="BackgroundImageFix"/>
<feBlend mode="normal" in="SourceGraphic" in2="BackgroundImageFix" result="shape"/>
<feGaussianBlur stdDeviation="7.5" result="effect1_foregroundBlur_4_2"/>
</filter>
<filter id="filter7_f_4_2" x="55.0209" y="100.534" width="37.9719" height="39.6614" filterUnits="userSpaceOnUse" color-interpolation-filters="sRGB">
<feFlood flood-opacity="0" result="BackgroundImageFix"/>
<feBlend mode="normal" in="SourceGraphic" in2="BackgroundImageFix" result="shape"/>
<feGaussianBlur stdDeviation="5" result="effect1_foregroundBlur_4_2"/>
</filter>
<filter id="filter8_f_4_2" x="31.0899" y="60.5339" width="118.806" height="119.614" filterUnits="userSpaceOnUse" color-interpolation-filters="sRGB">
<feFlood flood-opacity="0" result="BackgroundImageFix"/>
<feBlend mode="normal" in="SourceGraphic" in2="BackgroundImageFix" result="shape"/>
<feGaussianBlur stdDeviation="25" result="effect1_foregroundBlur_4_2"/>
</filter>
<filter id="filter9_f_4_2" x="61.0899" y="90.5339" width="58.806" height="59.6138" filterUnits="userSpaceOnUse" color-interpolation-filters="sRGB">
<feFlood flood-opacity="0" result="BackgroundImageFix"/>
<feBlend mode="normal" in="SourceGraphic" in2="BackgroundImageFix" result="shape"/>
<feGaussianBlur stdDeviation="10" result="effect1_foregroundBlur_4_2"/>
</filter>
<filter id="filter10_f_4_2" x="66.0899" y="95.5339" width="48.806" height="49.6138" filterUnits="userSpaceOnUse" color-interpolation-filters="sRGB">
<feFlood flood-opacity="0" result="BackgroundImageFix"/>
<feBlend mode="normal" in="SourceGraphic" in2="BackgroundImageFix" result="shape"/>
<feGaussianBlur stdDeviation="7.5" result="effect1_foregroundBlur_4_2"/>
</filter>
<filter id="filter11_f_4_2" x="71.0899" y="100.534" width="38.806" height="39.6138" filterUnits="userSpaceOnUse" color-interpolation-filters="sRGB">
<feFlood flood-opacity="0" result="BackgroundImageFix"/>
<feBlend mode="normal" in="SourceGraphic" in2="BackgroundImageFix" result="shape"/>
<feGaussianBlur stdDeviation="5" result="effect1_foregroundBlur_4_2"/>
</filter>
<linearGradient id="paint0_linear_4_2" x1="74.9998" y1="106.364" x2="74.9998" y2="0.0451597" gradientUnits="userSpaceOnUse">
<stop stop-color="#74B0E8"/>
<stop offset="1" stop-color="#7242BD"/>
</linearGradient>
<linearGradient id="paint1_linear_4_2" x1="59.5102" y1="129.318" x2="59.5102" y2="111.363" gradientUnits="userSpaceOnUse">
<stop stop-color="#7249BF"/>
<stop offset="1" stop-color="#73A7E4"/>
</linearGradient>
<linearGradient id="paint2_linear_4_2" x1="59.5102" y1="129.318" x2="59.5102" y2="111.363" gradientUnits="userSpaceOnUse">
<stop stop-color="#7249BF"/>
<stop offset="1" stop-color="#73A7E4"/>
</linearGradient>
<linearGradient id="paint3_linear_4_2" x1="59.5102" y1="129.318" x2="59.5102" y2="111.363" gradientUnits="userSpaceOnUse">
<stop stop-color="#7249BF"/>
<stop offset="1" stop-color="#73A7E4"/>
</linearGradient>
<linearGradient id="paint4_linear_4_2" x1="59.5102" y1="129.318" x2="59.5102" y2="111.363" gradientUnits="userSpaceOnUse">
<stop stop-color="#7249BF"/>
<stop offset="1" stop-color="#73A7E4"/>
</linearGradient>
<linearGradient id="paint5_linear_4_2" x1="59.5102" y1="129.318" x2="59.5102" y2="111.363" gradientUnits="userSpaceOnUse">
<stop stop-color="#EDE7F8"/>
<stop offset="1" stop-color="#73A7E4"/>
</linearGradient>
<linearGradient id="paint6_linear_4_2" x1="73.8745" y1="129.341" x2="73.8745" y2="111.363" gradientUnits="userSpaceOnUse">
<stop stop-color="#724DC1"/>
<stop offset="1" stop-color="#73A2E2"/>
</linearGradient>
<linearGradient id="paint7_linear_4_2" x1="73.8745" y1="129.341" x2="73.8745" y2="111.363" gradientUnits="userSpaceOnUse">
<stop stop-color="#724DC1"/>
<stop offset="1" stop-color="#73A2E2"/>
</linearGradient>
<linearGradient id="paint8_linear_4_2" x1="73.8745" y1="129.341" x2="73.8745" y2="111.363" gradientUnits="userSpaceOnUse">
<stop stop-color="#724DC1"/>
<stop offset="1" stop-color="#73A2E2"/>
</linearGradient>
<linearGradient id="paint9_linear_4_2" x1="73.8745" y1="129.341" x2="73.8745" y2="111.363" gradientUnits="userSpaceOnUse">
<stop stop-color="#724DC1"/>
<stop offset="1" stop-color="#73A2E2"/>
</linearGradient>
<linearGradient id="paint10_linear_4_2" x1="73.8745" y1="129.341" x2="73.8745" y2="111.363" gradientUnits="userSpaceOnUse">
<stop stop-color="#724DC1"/>
<stop offset="1" stop-color="#73A2E2"/>
</linearGradient>
<linearGradient id="paint11_linear_4_2" x1="90.5855" y1="129.318" x2="90.5855" y2="111.363" gradientUnits="userSpaceOnUse">
<stop stop-color="#7251C2"/>
<stop offset="1" stop-color="#739ADF"/>
</linearGradient>
<linearGradient id="paint12_linear_4_2" x1="90.5855" y1="129.318" x2="90.5855" y2="111.363" gradientUnits="userSpaceOnUse">
<stop stop-color="#7251C2"/>
<stop offset="1" stop-color="#739ADF"/>
</linearGradient>
<linearGradient id="paint13_linear_4_2" x1="90.5855" y1="129.318" x2="90.5855" y2="111.363" gradientUnits="userSpaceOnUse">
<stop stop-color="#7251C2"/>
<stop offset="1" stop-color="#739ADF"/>
</linearGradient>
<linearGradient id="paint14_linear_4_2" x1="90.5855" y1="129.318" x2="90.5855" y2="111.363" gradientUnits="userSpaceOnUse">
<stop stop-color="#7251C2"/>
<stop offset="1" stop-color="#739ADF"/>
</linearGradient>
<linearGradient id="paint15_linear_4_2" x1="90.5855" y1="129.318" x2="90.5855" y2="111.363" gradientUnits="userSpaceOnUse">
<stop stop-color="#7251C2"/>
<stop offset="1" stop-color="#739ADF"/>
</linearGradient>
<linearGradient id="paint16_linear_4_2" x1="74.9431" y1="149.914" x2="74.9431" y2="133.864" gradientUnits="userSpaceOnUse">
<stop stop-color="#7B30B6"/>
<stop offset="1" stop-color="#3A92E2" stop-opacity="0.92"/>
</linearGradient>
<clipPath id="clip0_4_2">
<rect width="150" height="150" fill="white"/>
</clipPath>
</defs>
</svg>
